<svg width="88" height="23" viewBox="0 0 88 23" fill="none" xmlns="http://www.w3.org/2000/svg">
<path d="M1.41 22.15V18.25L18.66 18.28C19.54 18.28 20.21 18.08 20.67 17.68C21.15 17.26 21.39 16.59 21.39 15.67C21.39 14.75 21.15 14.09 20.67 13.69C20.21 13.27 19.54 13.06 18.66 13.06H7.92C5.7 13.06 3.97 12.53 2.73 11.47C1.51 10.39 0.9 8.81 0.9 6.73C0.9 4.65 1.51 3.08 2.73 2.02C3.97 0.939999 5.7 0.399999 7.92 0.399999H24.78V4.3L8.43 4.27C7.57 4.27 6.9 4.47 6.42 4.87C5.94 5.25 5.7 5.87 5.7 6.73C5.7 7.59 5.94 8.22 6.42 8.62C6.9 9 7.57 9.19 8.43 9.19H19.17C21.39 9.19 23.11 9.74 24.33 10.84C25.57 11.92 26.19 13.53 26.19 15.67C26.19 17.79 25.57 19.4 24.33 20.5C23.11 21.6 21.39 22.15 19.17 22.15H1.41ZM30.9996 22L28.5996 0.549999H33.3996L35.1696 16.21L41.1396 11.62V0.549999H45.9396V11.65L51.8496 16.21L53.6496 0.549999H58.4496L56.0496 22H52.0296L43.5396 15.13L35.0196 22H30.9996ZM62.0414 22V0.609998L80.1014 0.549999C82.4814 0.549999 84.2414 1.05 85.3814 2.05C86.5414 3.03 87.1214 4.51 87.1214 6.49C87.1214 8.47 86.4614 9.92 85.1414 10.84C86.0214 11.32 86.6714 11.96 87.0914 12.76C87.5114 13.54 87.7214 14.55 87.7214 15.79C87.7214 17.81 87.1414 19.35 85.9814 20.41C84.8414 21.45 83.0814 21.97 80.7014 21.97L62.0414 22ZM79.5314 4.39H66.8414V9.19H79.5314C81.3514 9.19 82.2614 8.37 82.2614 6.73C82.2614 5.17 81.3514 4.39 79.5314 4.39ZM80.1314 13.03H66.8414V18.13H80.1314C81.9514 18.13 82.8614 17.27 82.8614 15.55C82.8614 13.87 81.9514 13.03 80.1314 13.03Z" fill="#1D4594"/>
</svg>
